<svg height="512" viewBox="0 0 512 512" width="512" xmlns="http://www.w3.org/2000/svg"><g id="_08_Sunglasses" data-name="08 Sunglasses"><g id="Glyph"><path d="m496.023 240c.18-14.724-.54-35.424-5.363-45.57-20.261-44.424-194.366-47.05-216.25-.95-1.505 3.175-2.489 8.2-2.845 14.52h-31.7c-.289-5.838-1.091-10.523-2.305-13.6-18.316-45.077-189.013-46.113-215.39-1.56-5.573 9.409-6.384 31.615-6.193 47.16h-15.977v16h16.5c.633 61.331 47.77 96 108.426 96 33.178 0 57.613-13.175 75.216-32h-56.142v-16h68.727a145.263 145.263 0 0 0 9.165-16h-61.892v-16h68.75c.138-.373.278-.745.412-1.118 10.237-19.124 40.922-19.752 52.532-1.932 39.171 110.228 149.831 93 189.473 51.05h-55.167v-16h67.094a88.2 88.2 0 0 0 7.21-16h-58.304v-16h62.193a111 111 0 0 0 1.3-16h16.507v-16zm-368.023 80h-16v-16h16zm108.674-76.093a176.1 176.1 0 0 0 2.838-19.907h32.36a169.61 169.61 0 0 0 2.812 19.622 50.788 50.788 0 0 0 -38.01.285zm163.326 76.093h-16v-16h16z"/></g></g></svg>