<svg id="Capa_1" enable-background="new 0 0 512 512" height="512" viewBox="0 0 512 512" width="512" xmlns="http://www.w3.org/2000/svg"><g><path d="m301.762 207.089-1.992-4.043-2.007 4.043c-2.183 4.438-6.401 7.5-11.294 8.203l-4.453.645 3.223 3.149c3.53 3.442 5.142 8.408 4.307 13.271l-.762 4.453 3.999-2.095c4.395-2.314 9.58-2.314 13.975 0l3.984 2.095-.762-4.453c-.835-4.863.776-9.829 4.307-13.271l3.223-3.149-4.453-.645c-4.894-.703-9.113-3.779-11.295-8.203z"/><path d="m15 406h482c8.291 0 15-6.709 15-15v-45h-512v45c0 8.291 6.709 15 15 15z"/><path d="m286 106h-60c-8.291 0-15 6.709-15 15 0 24.814-20.186 45-45 45h-31c-19.409 0-36.577-12.363-42.7-30.762-5.816-17.49-23.042-29.238-42.847-29.238h-34.453c-8.291 0-15 6.709-15 15v195h511.24c-7.775-117.072-106.231-210-225.24-210zm74.224 110.2-19.351 18.853 4.57 26.646c.967 5.625-1.348 11.309-5.962 14.663-4.647 3.375-10.763 3.798-15.806 1.143l-23.906-12.568-23.906 12.568c-5.039 2.666-11.147 2.241-15.806-1.128-4.614-3.354-6.929-9.053-5.962-14.678l4.556-26.631-19.35-18.868c-4.087-3.984-5.552-9.946-3.794-15.381 1.772-5.42 6.46-9.375 12.114-10.195l26.733-3.882 11.968-24.229c2.52-5.127 7.734-8.364 13.447-8.364s10.928 3.237 13.447 8.364l11.953 24.229 26.733 3.882c5.654.82 10.342 4.775 12.114 10.195 1.759 5.435.295 11.397-3.792 15.381z"/></g></svg>