<svg id="Capa_1" enable-background="new 0 0 512.047 512.047" height="512" viewBox="0 0 512.047 512.047" width="512" xmlns="http://www.w3.org/2000/svg"><g><path d="m152.565 260.93c7.635-5.918 12.563-15.168 12.563-25.554 0-7.799-2.776-14.962-7.392-20.552 10.345-7.657 17.067-19.944 17.067-33.773 0-19.713-13.655-36.288-32-40.787v-21.384c0-5.523-4.477-10-10-10-12.131 0-22-9.869-22-22s9.869-22 22-22 22 9.869 22 22c0 5.523 4.477 10 10 10s10-4.477 10-10c0-23.159-18.841-42-42-42s-42 18.841-42 42c0 19.714 13.653 36.299 32 40.797v12.587c-18.345 4.499-32 21.075-32 40.787 0 13.83 6.722 26.116 17.067 33.773-4.616 5.59-7.392 12.753-7.392 20.552 0 10.385 4.928 19.635 12.563 25.554l-63.126 79.62c-33.385 42.109-29.907 102.517 8.091 140.514 19.979 19.979 46.542 30.982 74.797 30.982s54.818-11.003 74.798-30.982c37.998-37.998 41.476-98.406 8.091-140.515zm-19.762-101.879c12.131 0 22 9.869 22 22s-9.869 22-22 22-22-9.869-22-22 9.869-22 22-22zm12.325 76.325c0 6.796-5.529 12.325-12.325 12.325s-12.325-5.529-12.325-12.325 5.529-12.325 12.325-12.325 12.325 5.53 12.325 12.325zm48.329 231.547c-16.201 16.201-37.742 25.124-60.655 25.124s-44.454-8.923-60.655-25.125c-30.813-30.813-33.634-79.8-6.562-113.947l67.217-84.779 67.217 84.779c27.074 34.148 24.252 83.134-6.562 113.948z"/><path d="m139.433 331.286c-3.388-4.273-9.874-4.273-13.262 0l-33.943 42.813c-16.342 20.612-14.639 50.182 3.961 68.783 10.093 10.093 23.355 15.14 36.613 15.141 13.346.001 26.687-5.111 36.807-15.335 18.544-18.737 19.597-48.624 3.219-69.281z"/><path d="m462.133 295.67-63.126-79.62c7.635-5.918 12.563-15.168 12.563-25.554 0-7.799-2.776-14.962-7.392-20.552 10.345-7.657 17.067-19.944 17.067-33.773 0-19.713-13.655-36.288-32-40.787v-21.384c0-5.523-4.477-10-10-10-12.131 0-22-9.869-22-22s9.869-22 22-22 22 9.869 22 22c0 5.523 4.477 10 10 10s10-4.477 10-10c0-23.159-18.841-42-42-42s-42 18.841-42 42c0 19.714 13.653 36.299 32 40.797v12.587c-18.345 4.499-32 21.075-32 40.787 0 13.83 6.722 26.116 17.067 33.773-4.616 5.59-7.392 12.753-7.392 20.552 0 10.385 4.928 19.636 12.563 25.554l-63.126 79.62c-33.385 42.109-29.907 102.517 8.091 140.516 20.622 20.622 47.709 30.932 74.797 30.932 27.087 0 54.176-10.311 74.798-30.933 37.997-37.998 41.475-98.406 8.09-140.515zm-82.889-181.499c12.131 0 22 9.869 22 22s-9.869 22-22 22-22-9.869-22-22 9.869-22 22-22zm12.325 76.326c0 6.796-5.529 12.325-12.325 12.325s-12.325-5.529-12.325-12.325 5.529-12.325 12.325-12.325 12.325 5.529 12.325 12.325zm48.33 231.546c-33.445 33.444-87.865 33.446-121.31 0-30.814-30.813-33.635-79.8-6.562-113.947l67.217-84.779 67.217 84.779c27.073 34.147 24.252 83.133-6.562 113.947z"/><path d="m385.875 286.406c-3.388-4.273-9.874-4.273-13.262 0l-33.943 42.813c-16.342 20.612-14.639 50.182 3.961 68.783 10.093 10.093 23.355 15.14 36.613 15.141 13.346.001 26.687-5.111 36.807-15.335 18.544-18.737 19.597-48.624 3.219-69.281z"/></g></svg>