<?xml version="1.0" standalone="no"?>
<!DOCTYPE svg PUBLIC "-//W3C//DTD SVG 20010904//EN"
 "http://www.w3.org/TR/2001/REC-SVG-20010904/DTD/svg10.dtd">
<svg version="1.0" xmlns="http://www.w3.org/2000/svg"
 width="512.000000pt" height="512.000000pt" viewBox="0 0 512.000000 512.000000"
 preserveAspectRatio="xMidYMid meet">

<g transform="translate(0.000000,512.000000) scale(0.100000,-0.100000)"
fill="#000000" stroke="none">
<path d="M3245 4414 c-35 -18 -65 -44 -65 -56 0 -4 46 -8 103 -8 56 0 131 -7
166 -15 35 -9 66 -13 69 -10 11 11 -36 61 -78 83 -54 27 -149 30 -195 6z"/>
<path d="M3215 4135 c-151 -44 -241 -86 -370 -170 -433 -280 -754 -858 -905
-1625 -30 -155 -49 -294 -42 -301 4 -4 54 -17 112 -29 58 -12 260 -59 450
-105 503 -122 857 -199 1093 -236 67 -10 80 -10 88 2 13 21 95 366 124 519 65
349 92 769 66 1021 -29 275 -100 503 -208 666 -78 118 -261 284 -312 282 -9 0
-52 -11 -96 -24z"/>
<path d="M2530 4035 c-289 -84 -550 -215 -746 -376 -266 -217 -480 -594 -613
-1083 -37 -136 -80 -333 -96 -446 l-6 -45 223 -1 c123 0 265 -6 317 -12 51 -7
95 -11 98 -9 2 3 12 60 23 128 98 634 320 1192 623 1565 65 80 194 208 277
277 25 20 38 36 30 36 -8 0 -67 -15 -130 -34z"/>
<path d="M3766 3995 c243 -347 319 -904 218 -1604 -28 -199 -79 -449 -128
-632 l-34 -127 72 -6 c39 -3 166 -11 281 -16 116 -6 280 -18 365 -26 270 -26
370 -28 410 -7 40 21 76 70 90 122 42 158 55 594 24 830 -80 627 -424 1101
-1013 1395 -119 60 -299 136 -321 136 -5 0 11 -29 36 -65z"/>
<path d="M1057 1901 c-34 -5 -71 -18 -88 -30 -17 -12 -191 -133 -387 -268
-370 -255 -547 -382 -540 -388 2 -2 36 5 75 15 280 73 731 46 1093 -66 160
-50 289 -114 475 -239 167 -112 256 -161 340 -188 202 -66 545 -62 834 9 298
73 585 214 821 403 65 51 290 270 290 281 0 3 -64 12 -142 19 -270 24 -599 84
-1020 186 -126 30 -330 80 -454 110 -508 123 -716 155 -1019 160 -121 2 -246
0 -278 -4z"/>
</g>
</svg>
