<svg height="511pt" viewBox="-4 1 511 511.99898" width="511pt" xmlns="http://www.w3.org/2000/svg"><path d="m209.789062 430.753906h169.347657c1.472656-12.566406 5.050781-31.34375 13.71875-51.042968 14.082031-32.015626 44.519531-72.554688 109.542969-83.882813.671874-.117187 1.339843-.171875 2.003906-.199219v-125.472656h-80.675782c-41.300781 0-75.242187-32.011719-78.371093-72.523438h-50.242188l-6.964843 82.621094c-4.882813 57.953125-50.4375 104.195313-108.308594 109.949219l-49.390625 4.910156c1.714843 1.148438 3.414062 2.328125 5.074219 3.554688 51.363281 37.855469 68.890624 103.574219 74.265624 132.085937zm76.53125-109.859375c0 8.464844-6.863281 15.332031-15.332031 15.332031-8.464843 0-15.328125-6.867187-15.328125-15.332031v-7.664062c0-8.464844 6.863282-15.328125 15.328125-15.328125 8.46875 0 15.332031 6.863281 15.332031 15.328125zm37.351563-34.234375c0 8.464844-6.863281 15.328125-15.328125 15.328125-8.46875 0-15.332031-6.863281-15.332031-15.328125v-7.667968c0-8.464844 6.863281-15.328126 15.332031-15.328126 8.464844 0 15.328125 6.863282 15.328125 15.328126zm5.972656-103.730468c0-8.464844 6.863281-15.328126 15.332031-15.328126 8.464844 0 15.328126 6.863282 15.328126 15.328126v7.664062c0 8.46875-6.863282 15.332031-15.328126 15.332031-8.46875 0-15.332031-6.863281-15.332031-15.332031zm3.871094 34.910156c8.464844 0 15.328125 6.863281 15.328125 15.328125v7.664062c0 8.46875-6.863281 15.332031-15.328125 15.332031-8.46875 0-15.332031-6.863281-15.332031-15.332031v-7.664062c0-8.464844 6.863281-15.328125 15.332031-15.328125zm0 0"/><path d="m376.15625 97.632812c3.011719 23.574219 23.1875 41.863282 47.570312 41.863282h80.675782v-41.863282zm0 0"/><path d="m420.917969 392.058594c-6.445313 14.644531-9.472657 28.640625-10.894531 38.695312h94.378906v-104.113281c-39.734375 7.804687-67.8125 29.796875-83.484375 65.417969zm0 0"/><path d="m178.4375 430.753906c-5.796875-26.652344-21.675781-78.347656-61.105469-107.410156-13.207031-9.730469-29.679687-16.808594-38.125-20.09375-46.351562 15.1875-78.707031 55.515625-78.707031 102.316406v25.1875zm0 0"/><path d="m1.128906 461.414062c4.417969 28.207032 32.125 50.015626 65.554688 50.015626h202.601562c6.226563 0 11.835938-3.769532 14.191406-9.53125l16.546876-40.484376zm0 0"/><path d="m307.535156 461.414062 7.738282 38.292969c1.445312 7.148438 7.730468 12.292969 15.027343 12.292969h158.769531c8.46875 0 15.332032-6.863281 15.332032-15.332031v-35.253907zm0 0"/><path d="m375.753906 66.972656v-27.324218c0-21.863282-17.789062-39.648438-39.648437-39.648438-21.863281 0-39.648438 17.785156-39.648438 39.648438v27.324218zm0 0"/></svg>