<svg id="Layer_1" enable-background="new 0 0 510 510" height="512" viewBox="0 0 510 510" width="512" xmlns="http://www.w3.org/2000/svg"><g><path d="m152.485 104.951c6.9 0 12.515-5.614 12.515-12.515v-87.485h-135v100z"/><g><path d="m373.477 464.177c-23.486.001-46.954-1.686-70.144-5.079l-50.972-7.459c-42.427-6.209-85.25-9.326-128.129-9.326h-124.232v62.639h165v-18.378l134.575 13.841c21.271 3.097 42.79 4.636 64.331 4.635 45.923 0 91.912-6.994 135.61-20.794l10.484-3.312v-36.127c-44.218 12.844-90.399 19.36-136.523 19.36z"/><path d="m126.414 412.313c42.88 0 85.703 3.117 128.131 9.326l53.131 7.776c67.384 9.859 137.303 4.35 202.323-15.92l-.089-32.904c0-41.774-33.864-75.639-75.638-75.639h-23.319c-19.657 0-49.372-4.87-70.013-14.091l-22.936 39.917-26.012-14.945 23.355-40.647-5.684-3.79c-5.428-3.619-10.38-7.779-14.806-12.383l-41.389 28.319-16.94-24.76 41.481-28.382c-2.789-6.125-4.883-12.578-6.231-19.238h-46.778v-30h45v-30h-45v-30h45v-30h-45v-30h45v-30.053c0-16.511-13.385-29.896-29.896-29.896h-45.104v87.434c0 23.48-19.034 42.515-42.515 42.515h-107.485v53.486c0 20.621-5.604 40.855-16.214 58.537l-16.95 28.25c-7.745 12.907-11.836 27.677-11.836 42.73v94.358z"/></g></g></svg>