<?xml version="1.0" encoding="iso-8859-1"?>
<!-- Generator: Adobe Illustrator 16.0.0, SVG Export Plug-In . SVG Version: 6.00 Build 0)  -->
<!DOCTYPE svg PUBLIC "-//W3C//DTD SVG 1.1//EN" "http://www.w3.org/Graphics/SVG/1.1/DTD/svg11.dtd">
<svg version="1.1" id="Capa_1" xmlns="http://www.w3.org/2000/svg" xmlns:xlink="http://www.w3.org/1999/xlink" x="0px" y="0px"
	 width="28.534px" height="28.534px" viewBox="0 0 28.534 28.534" style="enable-background:new 0 0 28.534 28.534;"
	 xml:space="preserve">
<g>
	<g>
		<path d="M7.12,13.031c0.058-0.399,0.095-0.897,0.099-1.244c1.311-0.145,2.334-1.242,2.334-2.595c0-1.448-1.174-2.623-2.623-2.623
			c-1.449,0-2.624,1.175-2.624,2.623c0,1.353,1.025,2.45,2.334,2.595c0.005,0.347,0.042,0.845,0.099,1.244
			C3.001,13.134,0,16.188,0,19.952c0,3.828,3.103,6.934,6.931,6.934s6.933-3.104,6.933-6.934
			C13.862,16.188,10.86,13.133,7.12,13.031z M6.224,7.972C5.501,8.287,5.32,9.465,5.061,8.88C4.804,8.293,5.182,7.56,5.904,7.243
			c0.725-0.318,1.519-0.1,1.775,0.485C7.938,8.315,6.946,7.654,6.224,7.972z M6.929,21.348c-2.046,0-3.705-1.659-3.705-3.706
			c0-2.046,1.659-3.707,3.705-3.707c2.047,0,3.705,1.661,3.705,3.707C10.634,19.689,8.976,21.348,6.929,21.348z"/>
		<path d="M21.792,8.112c0.06-0.401,0.095-0.896,0.099-1.243c1.311-0.146,2.336-1.244,2.336-2.597c0-1.446-1.176-2.623-2.625-2.623
			S18.98,2.826,18.98,4.272c0,1.353,1.021,2.451,2.332,2.597c0.004,0.346,0.041,0.842,0.099,1.243
			c-3.739,0.103-6.741,3.159-6.741,6.922c0,3.828,3.104,6.932,6.932,6.932c3.83,0,6.933-3.104,6.933-6.932
			C28.533,11.271,25.532,8.213,21.792,8.112z M20.898,3.05c-0.723,0.318-0.905,1.497-1.162,0.912
			c-0.26-0.588,0.119-1.322,0.842-1.639c0.725-0.318,1.518-0.1,1.775,0.486C22.609,3.395,21.62,2.735,20.898,3.05z M21.602,16.428
			c-2.045,0-3.705-1.659-3.705-3.705c0-2.047,1.66-3.706,3.705-3.706c2.047,0,3.705,1.659,3.705,3.706
			C25.307,14.769,23.648,16.428,21.602,16.428z"/>
	</g>
</g>
<g>
</g>
<g>
</g>
<g>
</g>
<g>
</g>
<g>
</g>
<g>
</g>
<g>
</g>
<g>
</g>
<g>
</g>
<g>
</g>
<g>
</g>
<g>
</g>
<g>
</g>
<g>
</g>
<g>
</g>
</svg>
