<svg id="Layer_1" enable-background="new 0 0 512 512" height="512" viewBox="0 0 512 512" width="512" xmlns="http://www.w3.org/2000/svg"><g><path d="m.432 204.647c.532 2.194 1.545 4.257 3.002 6.021l164.143 198.766c.594.719 1.26 1.359 1.964 1.947 12.78-103.027-66.604-198.332-169.109-206.734z"/><path d="m341.208 389.93c0 7.145.421 14.331 1.25 21.451 3.352-2.766 163.339-197.815 166.11-200.714 1.455-1.762 2.468-3.826 3-6.02-95.039 8.395-170.36 88.974-170.36 185.283z"/><path d="m286.551 131.18c8.703 4.079 17.479 5.937 21.949 5.937 19.869-.752 19.87-29.249 0-30.001-7.957-.415-29.825 7.465-34.763 15.001 1.149 1.757 5.062 5.429 12.814 9.063z"/><path d="m203.5 137.117c7.984.409 29.815-7.463 34.762-15-4.958-7.552-26.826-15.417-34.762-15-19.869.751-19.871 29.248 0 30z"/><path d="m497 97.117h-151.104c20.037 29.151-1.779 70.343-37.397 70-5.02 0-11.785-1.024-19.055-3.05l6.216 15.453c4.097 9.583-3.562 20.793-13.911 20.601-5.942 0-11.567-3.555-13.921-9.406l-11.828-29.404-11.828 29.404c-8.098 18.165-34.568 7.513-27.832-11.195 0 0 6.216-15.453 6.216-15.453-7.27 2.026-14.035 3.05-19.055 3.05-35.622.346-57.432-40.863-37.396-70h-151.105c-8.284 0-15 6.716-15 15v62.388c120.119 6.752 215.28 120.867 199.336 240.379h113.327c-15.953-119.516 79.238-233.637 199.337-240.38v-62.387c0-8.284-6.716-15-15-15z"/></g></svg>