<?xml version="1.0" encoding="utf-8"?>
<!-- Svg Vector Icons : http://www.onlinewebfonts.com/icon -->
<!DOCTYPE svg PUBLIC "-//W3C//DTD SVG 1.1//EN" "http://www.w3.org/Graphics/SVG/1.1/DTD/svg11.dtd">
<svg version="1.1" xmlns="http://www.w3.org/2000/svg" xmlns:xlink="http://www.w3.org/1999/xlink" x="0px" y="0px" viewBox="0 0 1000 1000" enable-background="new 0 0 1000 1000" xml:space="preserve">
<metadata> Svg Vector Icons : http://www.onlinewebfonts.com/icon </metadata>
<g><g transform="translate(0.000000,511.000000) scale(0.100000,-0.100000)"><path d="M2573.9,4950.2c-55-55-59.8-74.1-59.8-310.7v-251h2450h2450v262.9c0,231.9-4.8,267.7-47.8,310.7c-47.8,47.8-78.9,47.8-2390.2,47.8H2631.3L2573.9,4950.2z"/><path d="M2490.2,4008.5c-141-200.8-212.7-535.4-231.9-1082.8c-7.2-234.2-7.2-425.5,2.4-425.5c7.2,0,102.8,45.4,210.3,98c578.4,291.6,999.1,688.4,1226.2,1156.9c57.4,119.5,110,239,119.5,270.1l14.3,52.6h-645.4h-645.4L2490.2,4008.5z"/><path d="M4118,3977.4c-215.1-724.2-843.8-1372-1685.1-1737.7l-181.7-81.3v-3473V-4790h915.5h917.9l28.7,267.7c231.9,2182.3,619.1,5179.6,767.3,5946.9c105.2,535.4,136.3,537.8,251,23.9c153-681.2,499.6-3382.2,745.8-5825l40.6-413.5h915.5h915.5v3473v3470.6L7493,2273.2c-499.5,231.9-946.5,578.4-1226.2,946.5c-155.4,207.9-339.4,561.7-384.8,745.8l-26.3,112.3H5000h-853.3L4118,3977.4z"/><path d="M6183.2,4025.2c7.2-31.1,62.1-153,121.9-274.9c231.9-480.4,631-855.7,1221.4-1152.1c109.9-52.6,205.5-98,212.7-98c9.6,0,9.6,191.2,2.4,425.5c-19.1,545-93.2,884.4-236.6,1087.6l-45.4,64.5h-645.4h-645.4L6183.2,4025.2z"/></g></g>
</svg>