<svg id="Capa_1" enable-background="new 0 0 510 510" height="512" viewBox="0 0 510 510" width="512" xmlns="http://www.w3.org/2000/svg"><g><path d="m96.1 176.69c.119 1.366-.33-.761 11.69 47.31h60.21v-33c0-8.28 6.72-15 15-15s15 6.72 15 15v33h114v-33c0-8.28 6.72-15 15-15s15 6.72 15 15v33h60.21c11.757-47.016 13.484-49.144 10.27-55.57-.85-1.796 5.18 6.454-70.48-94.43v-59c0-8.28-6.72-15-15-15s-15 6.72-15 15v59l-57 76-57-76v-59c0-8.28-6.72-15-15-15s-15 6.72-15 15v59c-75.224 100.298-69.409 92.183-70.77 95.04-1.021 2.481-1.438 4.874-1.13 7.65z"/><path d="m110.01 254-4.25 34h298.48l-4.25-34z"/><path d="m429.88 493.14-21.89-175.14h-305.98l-21.89 175.14c-1.129 8.926 5.841 16.86 14.88 16.86h320c9.033 0 16.009-7.929 14.88-16.86z"/></g></svg>