<svg height="512pt" viewBox="0 -42 512 512" width="512pt" xmlns="http://www.w3.org/2000/svg"><path d="m496.972656 296.695312c-38.429687 0-69.699218 31.261719-69.699218 69.695313v10.789063h84.726562v-80.484376zm0 0"/><path d="m95.214844 377.179688v-159.660157c-54.550782 13.113281-95.214844 62.300781-95.214844 120.820313v38.839844zm0 0"/><path d="m125.273438 377.179688h271.941406v-10.789063c0-55.003906 44.75-99.753906 99.757812-99.753906h15.027344v-123.820313h-250.460938v31.707032c0 2.585937-.257812 5.113281-.734374 7.558593h91.40625v30.058594h-105.902344l65.324218 58.3125-20.015624 22.425781-88.269532-78.792968h-78.074218zm0 0"/><path d="m512 112.761719v-112.761719 27.824219h-250.460938v84.9375zm0 0"/><path d="m0 407.238281v49.582031h308.011719l36.773437-9.503906 35.316406 9.503906h131.898438v-49.582031zm0 0"/></svg>