<?xml version="1.0" standalone="no"?>
<!DOCTYPE svg PUBLIC "-//W3C//DTD SVG 20010904//EN"
 "http://www.w3.org/TR/2001/REC-SVG-20010904/DTD/svg10.dtd">
<svg version="1.0" xmlns="http://www.w3.org/2000/svg"
 width="683.000000pt" height="683.000000pt" viewBox="0 0 683.000000 683.000000"
 preserveAspectRatio="xMidYMid meet">

<g transform="translate(0.000000,683.000000) scale(0.100000,-0.100000)"
fill="#000000" stroke="none">
<path d="M4605 6201 c-200 -69 -258 -90 -675 -247 l-315 -119 -1525 -5 -1525
-6 -89 -47 c-48 -26 -106 -61 -128 -79 -54 -43 -118 -131 -162 -224 l-36 -76
3 -2211 c2 -2047 4 -2216 19 -2260 40 -111 91 -191 182 -283 84 -84 101 -97
217 -153 l126 -61 2718 0 2718 0 125 61 c114 55 132 68 216 152 94 94 134 156
179 274 l21 58 4 1787 3 1786 -37 74 c-53 107 -116 191 -175 233 -80 58 -183
103 -264 116 l-74 12 -5 61 c-3 33 -8 123 -11 199 -3 94 -11 154 -23 191 -59
174 -228 338 -387 377 -30 7 -176 14 -359 18 l-308 6 -65 170 c-68 182 -81
207 -116 229 -49 31 -77 27 -252 -33z m105 -316 c68 -160 332 -887 324 -894
-8 -9 -2709 -13 -2833 -6 -59 4 -98 11 -90 15 8 4 140 54 294 110 154 56 352
128 440 160 88 33 248 90 355 128 205 74 545 196 920 333 286 104 553 198 563
198 4 1 16 -19 27 -44z m-2166 -342 c111 -3 191 -10 183 -14 -8 -5 -88 -35
-178 -68 -90 -32 -430 -156 -756 -274 l-591 -216 -284 8 -283 7 -54 29 c-130
71 -188 246 -123 371 18 35 75 96 126 135 15 11 82 15 340 19 510 9 1405 11
1620 3z m3140 -33 c68 -41 121 -108 135 -171 6 -24 11 -115 11 -202 l0 -157
-242 2 -243 3 -65 180 c-36 99 -83 227 -103 284 l-37 103 243 -3 243 -4 58
-35z m-5176 -774 l67 -34 2820 -7 2820 -8 41 -27 c22 -16 57 -46 77 -69 71
-79 67 -34 67 -709 l0 -610 -362 -7 -363 -7 -75 -40 c-103 -55 -162 -102 -211
-167 -99 -135 -122 -220 -110 -409 6 -98 11 -115 46 -187 75 -152 234 -278
385 -305 30 -6 198 -13 373 -17 l317 -6 -1 -451 c0 -550 -6 -640 -41 -718 -34
-74 -126 -164 -216 -211 l-70 -37 -2656 0 -2656 0 -71 35 c-91 46 -178 133
-224 224 l-35 71 0 1865 c0 1026 2 1865 5 1865 3 0 36 -15 73 -34z m5892
-2035 l0 -289 -322 5 -323 5 -55 33 c-108 66 -167 193 -141 308 14 62 68 138
129 182 40 28 52 30 150 36 59 3 209 6 335 7 l227 2 0 -289z"/>
<path d="M5830 2700 l0 -140 145 0 145 0 0 140 0 140 -145 0 -145 0 0 -140z"/>
</g>
</svg>
