<?xml version="1.0" encoding="iso-8859-1"?>
<!-- Generator: Adobe Illustrator 18.0.0, SVG Export Plug-In . SVG Version: 6.00 Build 0)  -->
<!DOCTYPE svg PUBLIC "-//W3C//DTD SVG 1.1//EN" "http://www.w3.org/Graphics/SVG/1.1/DTD/svg11.dtd">
<svg version="1.1" id="Capa_1" xmlns="http://www.w3.org/2000/svg" xmlns:xlink="http://www.w3.org/1999/xlink" x="0px" y="0px"
	 viewBox="0 0 302.545 302.545" style="enable-background:new 0 0 302.545 302.545;" xml:space="preserve">
<g>
	<path d="M266.671,31.02c-0.476-1.338-1.465-2.434-2.754-3.035L219.808,7.623c-9.386-3.18-18.947-5.692-28.595-7.524
		c-2.773-0.543-5.468,1.211-6.08,3.966c-3.52,15.523-17.259,27.14-33.859,27.14c-16.6,0-30.34-11.617-33.86-27.14
		c-0.621-2.754-3.306-4.509-6.08-3.966c-9.648,1.832-19.208,4.344-28.604,7.524L38.631,27.984c-1.3,0.602-2.299,1.697-2.754,3.035
		c-0.466,1.348-0.378,2.812,0.281,4.082l19.15,37.797c1.125,2.259,3.723,3.374,6.148,2.647l21.274-6.303v126.805
		c0,2.889,2.342,5.231,5.231,5.231h126.62c2.879,0,5.226-2.347,5.226-5.227V69.243l21.284,6.303
		c2.424,0.727,5.003-0.388,6.147-2.647l19.16-37.797C267.039,33.832,267.136,32.368,266.671,31.02z"/>
	<path d="M214.813,223.112h-63.527H87.76c-2.886,0-5.227,2.337-5.231,5.223c-0.005,2.997-0.054,4.687-0.339,17.558
		c-0.06,2.691,1.927,4.977,4.599,5.302c12.077,1.469,24.474,9.678,32.55,18.427c7.216,7.818,15.629,18.986,19.492,29.495
		c0.756,2.058,2.718,3.428,4.91,3.428c1.725,0,4.161,0,7.546,0h7.546c2.194,0,4.154-1.369,4.91-3.428
		c3.862-10.506,12.271-21.673,19.492-29.495c8.076-8.749,20.473-16.958,32.55-18.427c2.667-0.324,4.658-2.617,4.599-5.302
		c-0.286-12.904-0.335-14.534-0.339-17.558C220.039,225.45,217.698,223.112,214.813,223.112z"/>
</g>
<g>
</g>
<g>
</g>
<g>
</g>
<g>
</g>
<g>
</g>
<g>
</g>
<g>
</g>
<g>
</g>
<g>
</g>
<g>
</g>
<g>
</g>
<g>
</g>
<g>
</g>
<g>
</g>
<g>
</g>
</svg>
