<?xml version="1.0" encoding="utf-8"?>
<!-- Svg Vector Icons : http://www.onlinewebfonts.com/icon -->
<!DOCTYPE svg PUBLIC "-//W3C//DTD SVG 1.1//EN" "http://www.w3.org/Graphics/SVG/1.1/DTD/svg11.dtd">
<svg version="1.1" xmlns="http://www.w3.org/2000/svg" xmlns:xlink="http://www.w3.org/1999/xlink" x="0px" y="0px" viewBox="0 0 1000 1000" enable-background="new 0 0 1000 1000" xml:space="preserve">
<metadata> Svg Vector Icons : http://www.onlinewebfonts.com/icon </metadata>
<g><g transform="translate(0.000000,512.000000) scale(0.100000,-0.100000)"><path d="M4319.3,4999.1c-921.6-61.3-1933.3-258.7-2826.1-551.8c-260.6-86.2-331.5-136-366-251c-15.3-55.6,36.4-513.5,287.4-2519.6c505.8-4027.5,689.8-5451.1,739.6-5715.5c44.1-231.8,69-256.7,321.9-337.2c262.5-82.4,724.2-208.8,730-199.3c1.9,1.9-143.7,1212.8-327.6,2686.2c-182,1475.3-327.6,2684.3-323.8,2688.2c9.6,9.6,229.9-32.6,256.8-49.8c11.5-7.7,159-1138.1,350.6-2693.9c182-1475.3,333.4-2686.2,337.2-2690.1c9.6-13.4,385.1-74.7,678.3-111.1c385.1-46,1253.1-46,1655.4,1.9c553.7,65.1,1111.3,183.9,1619,348.7c216.5,69,274,95.8,314.2,143.7c57.5,69,61.3,80.5,88.1,333.4c28.7,249.1,291.2,2299.2,661,5154.1c162.9,1255,314.2,2421.8,335.3,2594.3c57.5,448.3,36.4,488.6-306.6,603.5C7183.7,4886,5672,5089.1,4319.3,4999.1z M5848.2,4416.6c592.1-51.7,1182.2-153.3,1747.4-298.9c168.6-44.1,325.7-84.3,350.6-88.1c80.5-19.2,40.2-38.3-143.7-70.9c-739.6-126.5-1507.9-182-2745.6-197.4c-1151.5-13.4-1772.3,21.1-2462.1,138c-373.6,63.2-557.6,107.3-525,124.5c51.7,30.7,549.9,153.3,879.5,218.4c406.2,82.4,797.1,139.9,1168.8,172.4C4508.9,4451.1,5449.7,4451.1,5848.2,4416.6z M1981.7,3746c105.4-28.7,197.3-57.5,205-63.2c5.7-7.7,65.1-452.2,128.4-990.6c65.2-536.5,120.7-994.4,126.5-1015.5c7.7-34.5-17.3-47.9-206.9-107.3c-118.8-38.3-218.4-67.1-222.3-63.2c-5.7,5.7-289.3,2234.1-289.3,2285.8c0,15.3,13.4,21.1,34.5,15.3C1774.8,3801.6,1876.4,3774.8,1981.7,3746z M8268.2,3723c-5.7-30.6-70.9-532.7-145.6-1117c-74.7-584.4-139.9-1082.5-143.7-1105.5l-9.6-42.1l-92,38.3c-737.7,320-2646,459.8-4257.4,314.2c-314.2-28.7-816.2-95.8-869.9-116.9c-21.1-7.7-30.6,7.7-38.3,53.7c-34.5,203.1-224.2,1858.5-214.6,1868.1c5.8,5.7,113.1-3.8,235.7-21.1c867.9-122.6,1990.7-153.3,3310.9-88.1c789.4,40.2,1582.6,126.5,2002.2,218.4c111.1,24.9,208.8,46,216.5,47.9C8272,3772.8,8273.9,3751.8,8268.2,3723z M6168.2,1408.5c406.2-36.4,697.4-76.6,996.3-136c258.7-51.7,607.4-160.9,695.5-216.5l55.6-34.5l-65.2-40.2c-212.7-132.2-839.2-264.4-1605.6-343c-431.1-44.1-2029.1-49.8-2481.2-9.6c-295.1,26.8-908.2,111.1-923.5,126.5c-11.5,11.5-61.3,385.1-63.2,463.7c0,57.5,3.8,61.3,111.1,80.5c59.4,13.4,239.5,38.3,396.6,59.4c247.2,32.6,425.4,47.9,1005.9,86.2C4543.4,1462.1,5871.2,1437.2,6168.2,1408.5z M2520.1,1015.7c11.5-99.6,17.3-185.9,13.4-191.6c-11.5-13.4-249.1,55.6-362.1,105.4c-84.3,36.4-103.5,53.6-103.5,92c0,30.7,17.2,53.7,53.6,70.9c88.1,42.2,318.1,113,348.7,109.2C2491.4,1197.7,2504.8,1151.7,2520.1,1015.7z"/></g></g>
</svg>