<?xml version="1.0" standalone="no"?>
<!DOCTYPE svg PUBLIC "-//W3C//DTD SVG 20010904//EN"
 "http://www.w3.org/TR/2001/REC-SVG-20010904/DTD/svg10.dtd">
<svg version="1.0" xmlns="http://www.w3.org/2000/svg"
 width="512.000000pt" height="512.000000pt" viewBox="0 0 512.000000 512.000000"
 preserveAspectRatio="xMidYMid meet">

<g transform="translate(0.000000,512.000000) scale(0.100000,-0.100000)"
fill="#000000" stroke="none">
<path d="M1937 4790 c-126 -20 -282 -81 -385 -152 -68 -46 -187 -163 -238
-234 -61 -85 -120 -214 -145 -315 l-22 -87 -101 -4 c-78 -3 -110 -9 -142 -26
-64 -33 -103 -70 -131 -125 -23 -46 -42 -177 -225 -1571 -182 -1382 -199
-1526 -188 -1573 14 -64 58 -132 109 -167 82 -57 57 -56 1030 -56 l896 0 20
-36 c25 -48 85 -98 134 -112 28 -9 313 -12 1057 -12 l1019 0 50 24 c85 39 135
115 135 203 0 26 -60 507 -134 1068 -141 1079 -139 1067 -198 1122 -12 12 -43
31 -68 42 -43 20 -64 21 -455 21 l-411 0 -63 483 c-34 265 -69 503 -77 528
-20 61 -75 124 -138 156 -43 23 -67 28 -152 31 l-101 4 -21 83 c-25 101 -86
235 -146 318 -51 72 -170 189 -239 236 -71 49 -201 107 -292 131 -92 24 -286
34 -378 20z m358 -264 c110 -35 196 -88 279 -172 84 -84 131 -159 168 -269
l27 -80 -344 -3 c-190 -1 -500 -1 -690 0 l-344 3 27 80 c67 201 217 355 417
430 94 36 155 45 275 40 77 -3 127 -10 185 -29z m938 -1203 c32 -241 61 -457
64 -480 l6 -43 -234 0 c-214 0 -238 -2 -279 -21 -25 -11 -56 -30 -68 -42 -59
-55 -58 -49 -188 -1042 -68 -517 -124 -948 -124 -957 0 -17 -50 -18 -910 -18
-501 0 -910 3 -910 8 -1 4 88 688 197 1519 l198 1513 1095 0 1096 0 57 -437z
m1082 -795 c7 -41 255 -1947 255 -1959 0 -5 -403 -9 -970 -9 -552 0 -970 4
-970 9 0 12 249 1919 255 1959 l6 32 709 0 709 0 6 -32z"/>
<path d="M1375 3586 c-101 -44 -125 -178 -46 -257 112 -113 296 -12 267 146
-18 94 -131 151 -221 111z"/>
<path d="M2655 3586 c-101 -44 -125 -178 -46 -257 112 -113 296 -12 267 146
-18 94 -131 151 -221 111z"/>
<path d="M3104 2404 c-47 -23 -64 -61 -64 -146 0 -275 195 -537 447 -603 326
-85 673 226 673 603 0 86 -17 124 -66 147 -41 19 -68 19 -109 -1 -41 -19 -60
-57 -79 -163 -17 -94 -67 -209 -116 -264 -55 -63 -115 -92 -190 -92 -75 0
-135 29 -190 92 -49 55 -99 170 -116 264 -19 106 -38 144 -79 163 -41 20 -71
20 -111 0z"/>
</g>
</svg>
