<?xml version="1.0" encoding="utf-8"?>
<!-- Svg Vector Icons : http://www.onlinewebfonts.com/icon -->
<!DOCTYPE svg PUBLIC "-//W3C//DTD SVG 1.1//EN" "http://www.w3.org/Graphics/SVG/1.1/DTD/svg11.dtd">
<svg version="1.1" xmlns="http://www.w3.org/2000/svg" xmlns:xlink="http://www.w3.org/1999/xlink" x="0px" y="0px" viewBox="0 0 1000 1000" enable-background="new 0 0 1000 1000" xml:space="preserve">
<metadata> Svg Vector Icons : http://www.onlinewebfonts.com/icon </metadata>
<g><g transform="translate(0.000000,511.000000) scale(0.100000,-0.100000)"><path d="M4789.5,3566.8v-936l-1029.8-836.5L2729.9,956L1619.8,734L511.5,512l-5.7-1984.9L502-3459.7H301H100v-411.5v-411.5l1937,3.8l1938.9,5.7l5.7,1355.2c3.8,1293.9,5.7,1359,40.2,1427.9c44,86.1,174.2,206.7,262.2,243.1c91.9,38.3,1337.9,38.3,1431.7,0c82.3-34.4,191.4-130.1,245-218.2l44-70.8l9.6-1368.6l9.6-1368.6l1938.9-5.7l1937-3.8v411.5v411.5h-201h-201l-3.8,1986.8L9488.5,512L8378.3,734L7270.1,957.9l-1029.8,836.5l-1029.8,836.5v524.4v524.5h507.2H6225v411.5v411.5h-717.8h-717.8V3566.8z M5250.7,1773.3c382.8-112.9,654.6-421.1,710.1-802C6025.9,502.4,5740.7,46.8,5290.9-91c-166.5-51.7-415.4-51.7-581.9,0c-447.9,137.8-736.9,595.3-669.9,1056.6c57.4,388.5,336.9,706.3,714,807.7C4892.8,1811.6,5122.5,1811.6,5250.7,1773.3z M1937.5-2340v-507.2H1526h-411.5v507.2v507.2H1526h411.5V-2340z M3564.5-2340v-507.2h-507.2H2550v507.2v507.2h507.2h507.2V-2340z M7450-2340v-507.2h-507.2h-507.2v507.2v507.2h507.2H7450V-2340z M8885.5-2340v-507.2H8474h-411.5v507.2v507.2H8474h411.5V-2340z"/></g></g>
</svg>