<?xml version="1.0" standalone="no"?>
<!DOCTYPE svg PUBLIC "-//W3C//DTD SVG 20010904//EN"
 "http://www.w3.org/TR/2001/REC-SVG-20010904/DTD/svg10.dtd">
<svg version="1.0" xmlns="http://www.w3.org/2000/svg"
 width="512.000000pt" height="512.000000pt" viewBox="0 0 512.000000 512.000000"
 preserveAspectRatio="xMidYMid meet">

<g transform="translate(0.000000,512.000000) scale(0.100000,-0.100000)"
fill="#000000" stroke="none">
<path d="M2465 5107 c-22 -8 -56 -22 -75 -31 -19 -10 -551 -534 -1182 -1165
-1295 -1294 -1203 -1190 -1203 -1351 0 -161 -92 -57 1203 -1352 1295 -1295
1191 -1203 1352 -1203 161 0 57 -92 1352 1203 1295 1295 1203 1191 1203 1352
0 161 92 57 -1203 1352 -1040 1040 -1153 1150 -1206 1174 -71 32 -178 41 -241
21z m153 -201 c15 -8 393 -381 839 -828 l813 -813 -855 -855 -855 -855 -105
105 c-103 103 -106 105 -151 105 -60 0 -94 -36 -94 -97 0 -39 6 -47 105 -147
l105 -107 -70 -69 -70 -70 -855 855 -855 855 70 70 70 70 458 -458 c442 -442
459 -457 495 -457 49 0 73 13 93 52 33 64 37 60 -451 548 l-455 455 807 808
c445 445 822 818 838 828 36 23 86 24 123 5z m1865 -1854 l67 -67 -855 -855
-855 -855 -70 70 -70 70 852 852 c469 469 855 853 858 853 3 0 36 -30 73 -68z
m-2488 -2062 l-140 -140 -813 812 c-447 447 -820 825 -828 840 -17 32 -18 81
-3 111 6 12 57 68 113 125 l101 102 855 -855 855 -855 -140 -140z m2917 1608
c24 -81 52 -49 -829 -931 l-818 -817 -140 140 -140 140 855 855 855 855 103
-103 c72 -72 106 -113 114 -139z m-2279 -1396 l67 -68 -70 -69 -70 -69 -70 69
-70 69 67 68 c37 38 70 68 73 68 3 0 36 -30 73 -68z m-358 -492 l-140 -140
-70 70 -70 70 140 140 140 140 70 -70 70 -70 -140 -140z m780 -70 l-70 -70
-140 140 -140 140 70 70 70 70 140 -140 140 -140 -70 -70z m-352 -78 l137
-138 -107 -106 c-114 -111 -141 -126 -205 -113 -23 5 -65 39 -141 113 l-107
106 137 138 c76 76 140 138 143 138 3 0 67 -62 143 -138z"/>
<path d="M2288 4445 c-16 -9 -32 -31 -42 -57 -27 -74 -156 -572 -156 -601 0
-43 49 -87 97 -87 46 0 76 19 91 57 16 39 162 586 162 606 0 73 -84 118 -152
82z"/>
<path d="M2731 4446 c-27 -15 -50 -52 -51 -80 0 -21 144 -565 162 -609 15 -38
45 -57 91 -57 48 0 97 44 97 87 0 29 -129 527 -156 601 -24 64 -86 89 -143 58z"/>
<path d="M1946 2075 c-41 -22 -55 -44 -56 -88 0 -84 104 -130 163 -71 51 51
40 126 -23 159 -36 19 -48 19 -84 0z"/>
</g>
</svg>
