<svg height="464pt" viewBox="-120 0 464 464" width="464pt" xmlns="http://www.w3.org/2000/svg"><path d="m170.863281 328h-117.726562c20.96875 7.246094 40.757812 17.214844 58.863281 30.097656 18.105469-12.882812 37.894531-22.851562 58.863281-30.097656zm0 0"/><path d="m116.800781 374.398438-4.800781 3.601562-4.800781-3.601562c-20.480469-15.359376-43.296875-26.871094-67.816407-34.222657l-31.382812-9.421875v16.597656c44.777344 26.183594 77.886719 67.320313 93.886719 116.648438h20.21875c16-49.320312 49.109375-90.464844 93.894531-116.648438v-16.597656l-31.390625 9.414063c-24.511719 7.351562-47.335937 18.871093-67.808594 34.230469zm0 0"/><path d="m50.34375 88.3125c23.914062 4.785156 45.480469 17.121094 61.65625 35.101562 16.175781-17.980468 37.742188-30.316406 61.65625-35.101562l30.648438-6.128906-4.304688-5.375v-76.808594h-16v74.0625l-13.328125 1.664062c-19.960937 2.496094-38.792969 11.707032-53.015625 25.929688l-5.65625 5.65625-5.65625-5.65625c-14.222656-14.222656-33.054688-23.433594-53.015625-25.929688l-13.328125-1.664062v-74.0625h-16v76.808594l-4.304688 5.375zm0 0"/><path d="m17.34375 183.59375c8.105469 12.148438 12.976562 25.980469 14.289062 40.40625h160.734376c1.3125-14.425781 6.183593-28.257812 14.289062-40.40625l4.296875-6.449219c8.542969-12.800781 13.046875-27.695312 13.046875-43.089843 0-13.152344-3.390625-26.109376-9.695312-37.558594l-37.503907 7.503906c-23.367187 4.671875-44.105469 17.734375-58.402343 36.800781l-6.398438 8.535157-6.398438-8.535157c-14.296874-19.066406-35.035156-32.128906-58.402343-36.800781l-37.503907-7.503906c-6.304687 11.449218-9.695312 24.40625-9.695312 37.558594 0 15.386718 4.503906 30.289062 13.046875 43.089843zm0 0"/></svg>