<?xml version="1.0" encoding="iso-8859-1"?>
<!-- Generator: Adobe Illustrator 18.0.0, SVG Export Plug-In . SVG Version: 6.00 Build 0)  -->
<!DOCTYPE svg PUBLIC "-//W3C//DTD SVG 1.1//EN" "http://www.w3.org/Graphics/SVG/1.1/DTD/svg11.dtd">
<svg version="1.1" id="Capa_1" xmlns="http://www.w3.org/2000/svg" xmlns:xlink="http://www.w3.org/1999/xlink" x="0px" y="0px"
	 viewBox="0 0 293.525 293.525" style="enable-background:new 0 0 293.525 293.525;" xml:space="preserve">
<g>
	<path d="M256.972,195.505c-0.684-3.796-4.298-6.33-8.1-5.68c-21.295,3.641-58.616,6.057-101.212,6.057
		c-43.141,0-80.872-2.48-102.041-6.192c-1.879-0.33-3.81,0.119-5.352,1.242c-1.542,1.123-2.565,2.824-2.827,4.714l-1.819,13.118
		c-0.264,1.902,0.262,3.828,1.455,5.332c1.193,1.504,2.95,2.453,4.861,2.631c17.114,1.59,37.608,10.658,56.005,26.278
		c16.438,13.919,28.041,30.324,33.459,45.508c1.072,3.003,3.918,5.012,7.107,5.012h22.28c3.189,0,6.031-2.004,7.105-5.007
		c5.431-15.185,17.033-31.592,33.454-45.513c17.073-14.467,35.915-23.323,52.198-25.815c1.874-0.287,3.552-1.319,4.654-2.861
		c1.103-1.542,1.538-3.466,1.202-5.331L256.972,195.505z"/>
	<path d="M53.687,96.532v32.257c0,2.775,2.25,5.025,5.025,5.025h176.1c2.775,0,5.025-2.25,5.025-5.025V96.533
		c11.985-9.114,19.675-23.145,19.675-38.889C259.513,30.185,247.84,0,234.799,0c-23.098,0-60.338,31.978-74.195,58.815
		c-1.781,3.45-5.349,5.625-9.231,5.625h-9.202c-3.885,0-7.448-2.173-9.23-5.625C119.081,31.978,81.834,0,58.726,0
		C45.675,0,34.012,30.185,34.012,57.644C34.012,73.387,41.702,87.417,53.687,96.532z"/>
</g>
<g>
</g>
<g>
</g>
<g>
</g>
<g>
</g>
<g>
</g>
<g>
</g>
<g>
</g>
<g>
</g>
<g>
</g>
<g>
</g>
<g>
</g>
<g>
</g>
<g>
</g>
<g>
</g>
<g>
</g>
</svg>
