<svg id="Solid" height="512" viewBox="0 0 512 512" width="512" xmlns="http://www.w3.org/2000/svg"><path d="m332.535 32.255-53.2 94.571 88.453-58.966a40.079 40.079 0 0 0 -35.253-35.605z"/><path d="m206.679 48h98.642l9-16h-116.642z"/><path d="m296.321 64h-80.642l40.321 71.682z"/><path d="m408 464h32v16h-32z"/><path d="m72 464h32v16h-32z"/><path d="m160 448h192v16h-192z"/><path d="m179.465 32.255a40.079 40.079 0 0 0 -35.253 35.6l88.449 58.966z"/><path d="m64 440a8.009 8.009 0 0 0 8 8h32a8.009 8.009 0 0 0 8-8v-248a8 8 0 0 1 16 0v217.136a22.89 22.89 0 0 0 22.864 22.864h210.272a22.89 22.89 0 0 0 22.864-22.864v-217.136a8 8 0 0 1 16 0v248a8.009 8.009 0 0 0 8 8h32a8.009 8.009 0 0 0 8-8v-302.03a55.919 55.919 0 0 0 -42.418-54.328c-.122-.031-.243-.064-.363-.1l-22.755-6.842a7.984 7.984 0 0 1 -2.026 1.954l-100.438 66.961v110.385a8 8 0 0 1 -16 0v-99.719l-3.562 2.375a8 8 0 0 1 -8.876 0l-3.562-2.375v99.719a8 8 0 0 1 -16 0v-110.385l-100.438-66.959a7.984 7.984 0 0 1 -2.026-1.954l-22.755 6.84c-.12.036-.241.069-.363.1a55.919 55.919 0 0 0 -42.418 54.328z"/></svg>