<?xml version="1.0" encoding="iso-8859-1"?>
<!-- Generator: Adobe Illustrator 16.0.0, SVG Export Plug-In . SVG Version: 6.00 Build 0)  -->
<!DOCTYPE svg PUBLIC "-//W3C//DTD SVG 1.1//EN" "http://www.w3.org/Graphics/SVG/1.1/DTD/svg11.dtd">
<svg version="1.1" id="Capa_1" xmlns="http://www.w3.org/2000/svg" xmlns:xlink="http://www.w3.org/1999/xlink" x="0px" y="0px"
	 width="558.963px" height="558.963px" viewBox="0 0 558.963 558.963" style="enable-background:new 0 0 558.963 558.963;"
	 xml:space="preserve">
<g>
	<path d="M438.474,521.787c-2.209-9.409-6.828-19.852-16.457-20.311c-17.634-0.842-51.227,10.911-100.789-31.92
		c-49.553-42.83-55.434-91.532-53.741-146.124c1.406-46.044,9.104-213.961,11.476-265.427c0.382-8.338-3.682-13.789-12.088-23.16
		c0,0-23.954-25.857-52.201-34.301c5.68,36.51,5.833,65.427,5.173,81.884c-0.354,8.338-7.105,15.08-14.525,15.08
		s-12.977-6.761-13.158-15.109c-0.603-27.645-6.11-65.273-8.835-82.4c-27.272,7.334-51.054,31.566-51.054,31.566
		c-12.135,10.911-10.49,18.092-10.854,26.44c-1.903,44.887-5.154,180.072,19.67,272.14c15.319,56.82,8.1,93.129,1.501,111.135
		c-2.878,7.852-9.333,19.785-11.676,27.809c-3.051,10.451-5.719,24.805-2.286,36.49c2.353,8.014,7.545,19.46,7.21,27.808
		l-0.42,10.107c-0.354,8.339,6.139,15.09,14.487,15.09h56.275c8.348,0,14.927-3.758,14.698-8.387
		c-0.229-4.647,5.499-5.077,13.359-2.275c15.807,5.613,45.651,12.775,92.039,10.662c48.367-2.189,82.333-10.854,100.053-16.591
		C434.275,539.411,440.386,529.916,438.474,521.787z"/>
	<circle cx="206.172" cy="79.024" r="5.881"/>
</g>
<g>
</g>
<g>
</g>
<g>
</g>
<g>
</g>
<g>
</g>
<g>
</g>
<g>
</g>
<g>
</g>
<g>
</g>
<g>
</g>
<g>
</g>
<g>
</g>
<g>
</g>
<g>
</g>
<g>
</g>
</svg>
