<svg id="Layer_1" enable-background="new 0 0 512 512" height="512" viewBox="0 0 512 512" width="512" xmlns="http://www.w3.org/2000/svg"><g><path d="m431.667 208.867h80.333v-49.267c0-8.284-6.716-15-15-15h-115.667v127.467c0 24.813-20.187 45-45 45h-19.267v35.333c0 24.813-20.187 45-45 45h-15v99.6c0 8.284 6.716 15 15 15h64.267c6.985 0 13.046-4.821 14.616-11.627 0 0 33.584-145.53 33.584-145.53s33.584 145.529 33.584 145.53c1.57 6.806 7.631 11.627 14.616 11.627h64.267c8.284 0 15-6.716 15-15v-258.133h-80.333c-8.284 0-15-6.716-15-15s6.716-15 15-15z"/><path d="m231.905 0h-112.477l56.239 84.358z"/><path d="m79.267 0c-43.708 0-79.267 35.559-79.267 79.267v192.8c0 8.284 6.716 15 15 15h19.267v-159.6c0-8.284 6.716-15 15-15s15 6.716 15 15v224.933c0 8.284 6.716 15 15 15h65.333v-231.9c0-2.961.876-5.856 2.519-8.32l10.52-15.78-74.267-111.4z"/><path d="m287.066 352.4v-224.933c0-8.284 6.716-15 15-15s15 6.716 15 15v159.6h19.267c8.284 0 15-6.716 15-15v-192.8c0-43.708-35.559-79.267-79.267-79.267h-4.105l-93.361 140.042v227.358h97.466c8.285 0 15-6.716 15-15z"/></g></svg>