<?xml version="1.0" encoding="iso-8859-1"?>
<!-- Generator: Adobe Illustrator 19.0.0, SVG Export Plug-In . SVG Version: 6.00 Build 0)  -->
<svg version="1.1" id="Capa_1" xmlns="http://www.w3.org/2000/svg" xmlns:xlink="http://www.w3.org/1999/xlink" x="0px" y="0px"
	 viewBox="0 0 511.999 511.999" style="enable-background:new 0 0 511.999 511.999;" xml:space="preserve">
<g>
	<g>
		<path d="M103.844,331.509c-7.573-15.039-20.495-26.388-36.386-31.955c-11.926-4.178-23.237-9.906-33.642-16.972l6.977,194.507
			c0.289,8.07,6.915,14.461,14.989,14.461h34.109c8.039,0,14.649-6.339,14.986-14.371l5.558-132.562L103.844,331.509z"/>
	</g>
</g>
<g>
	<g>
		<path d="M484.341,380.875l-70.285-46.87c-3.967-2.645-8.954-3.248-13.436-1.622c-4.482,1.625-7.924,5.285-9.272,9.857
			c-3.416,11.58-15.618,18.222-27.193,14.808l-31.74-9.36c-14.781-4.36-27.205-14.111-34.982-27.458
			c-6.047-10.376-13.643-23.067-22.44-37.762C235.54,216.56,169.509,106.252,150.661,45.769
			c-3.836-12.311-13.604-21.489-26.13-24.551c-12.334-3.014-25.031,0.465-34.089,9.312L39.44,75.192
			C7.861,102.844-6.254,145.509,2.601,186.539c4.165,19.294,13.27,37.314,26.332,52.111c13.062,14.797,29.813,26.067,48.442,32.593
			c23.263,8.148,42.178,24.762,53.263,46.778l66.447,132.17c12.883,25.59,38.656,41.654,67.296,41.654c0.056,0,0.116,0,0.172,0
			l221.624-0.681c6.638-0.015,12.476-4.485,14.353-10.85l8.897-30.219C517.159,423.881,507.076,396.036,484.341,380.875z"/>
	</g>
</g>
<g>
</g>
<g>
</g>
<g>
</g>
<g>
</g>
<g>
</g>
<g>
</g>
<g>
</g>
<g>
</g>
<g>
</g>
<g>
</g>
<g>
</g>
<g>
</g>
<g>
</g>
<g>
</g>
<g>
</g>
</svg>
