<?xml version="1.0" encoding="iso-8859-1"?>
<!-- Generator: Adobe Illustrator 19.0.0, SVG Export Plug-In . SVG Version: 6.00 Build 0)  -->
<svg version="1.1" id="Capa_1" xmlns="http://www.w3.org/2000/svg" xmlns:xlink="http://www.w3.org/1999/xlink" x="0px" y="0px"
	 viewBox="0 0 512 512" style="enable-background:new 0 0 512 512;" xml:space="preserve">
<g>
	<g>
		<path d="M462.154,43.603L348.785,0H316c-24.813,0-45,20.187-45,45v110.219l9.155,313.096C280.871,492.811,300.629,512,325.136,512
			h65.669c21.899,0,40.539-15.655,44.323-37.224L491,156.306V85.604C491,67.118,479.408,50.24,462.154,43.603z M431.547,196
			c-12.848-32.979-34.253-55-57.547-55c-23.471,0-44.679,22.062-57.391,55H284.74c4.268-13.34,9.775-25.73,16.443-36.757
			c15.414-25.49,35.561-41.588,57.817-46.576V71h30v41.673c21.139,4.764,40.512,19.589,55.65,42.921
			c7.692,11.855,14.001,25.527,18.782,40.406H431.547z"/>
	</g>
</g>
<g>
	<g>
		<path d="M196,0h-32.785L49.846,43.604C32.592,50.24,21,67.118,21,85.604v70.702l55.872,318.47
			C80.656,496.345,99.296,512,121.195,512h65.669c24.507,0,44.265-19.189,44.981-43.685l9.148-312.877L241,45
			C241,20.187,220.813,0,196,0z M195.391,196c-12.712-32.938-33.919-55-57.391-55c-23.294,0-44.699,22.021-57.547,55H48.568
			c4.781-14.879,11.09-28.551,18.782-40.406c15.138-23.332,34.511-38.157,55.65-42.921V71h30v41.667
			c22.256,4.988,42.403,21.086,57.817,46.576c6.668,11.027,12.174,23.417,16.443,36.757H195.391z"/>
	</g>
</g>
<g>
</g>
<g>
</g>
<g>
</g>
<g>
</g>
<g>
</g>
<g>
</g>
<g>
</g>
<g>
</g>
<g>
</g>
<g>
</g>
<g>
</g>
<g>
</g>
<g>
</g>
<g>
</g>
<g>
</g>
</svg>
