<svg id="Layer_1" enable-background="new 0 0 512 512" height="512" viewBox="0 0 512 512" width="512" xmlns="http://www.w3.org/2000/svg"><g><path d="m355.002 373.3c-38.565 0-76.663-6.183-113.236-18.376-27.377-9.128-55.897-13.757-84.769-13.757h-125.93c-11.8 0-22.548-4.572-30.582-12.029-.309 2.357-.485 4.755-.485 7.195v56.233c0 8.284 6.716 15 15 15h121.882c18.656 0 36.197-7.266 49.391-20.46.017-.017.034-.033.05-.05 5.507-5.473 13.713-7.147 20.92-4.264l30.529 12.215c20.852 8.333 42.801 12.559 65.238 12.559h97.59c40.76 0 76.47-22.008 95.89-54.761-23.192 13.367-49.58 20.494-77.068 20.494h-64.42z"/><path d="m251.255 326.463c15.417 5.14 31.133 9.099 47.047 11.893l-22.613-12.198c-27.925-14.785-59.155-31.319-87.993-46.582-16.243-8.6-36.105-8.054-51.84 1.423-11.352 6.831-19.603 17.729-23.323 30.167h44.464c32.104 0 63.816 5.147 94.258 15.297z"/><path d="m448.8 232.967c-27.392 0-53.941-7.721-77.033-22.327l-22.018 44.035c-3.705 7.41-12.715 10.413-20.125 6.708s-10.413-12.715-6.708-20.125l23.665-47.331c-7.442-4.961-15.193-10.128-23.044-15.362l-21.988 43.976c-3.705 7.41-12.715 10.413-20.125 6.708s-10.413-12.715-6.708-20.125l23.665-47.33c-7.884-5.256-15.635-10.424-23.044-15.363l-21.988 43.976c-3.705 7.41-12.715 10.413-20.125 6.708s-10.413-12.715-6.708-20.125l23.665-47.331c-20.237-13.492-34.061-22.709-34.061-22.709-5.948-3.966-13.871-3.182-18.927 1.874l-29.346 29.346c-13.407 13.408-35.221 13.406-48.628 0-4.117-4.632-23.218-20.628-50.04-13.2-17.796 4.931-31.629 19.122-36.101 37.031l-16.564 66.257c-.298 1.19-.448 2.412-.448 3.639v64.267c0 8.284 6.716 15 15 15h50.665c4.293-23.015 18.288-43.617 38.652-55.87 24.69-14.871 55.865-15.729 81.348-2.235 28.836 15.262 60.068 31.798 87.995 46.583l43.157 22.849c25.72 13.61 54.689 20.805 83.774 20.806h2.764c33.313 0 64.63-12.972 88.185-36.527 2.813-2.813 4.393-6.645 4.393-10.623.001-34.836-28.343-63.18-63.199-63.18z"/></g></svg>