<svg height="512pt" viewBox="0 0 512 512.18467" width="512pt" xmlns="http://www.w3.org/2000/svg"><path d="m337.664062 230.546875c47.398438.4375 94-12.171875 134.710938-36.445313-.789062-44.035156 1.46875-88.070312 6.765625-131.792968 2.371094-23.066406 4.363281-43.347656 4.894531-62.308594h-153.082031c2.386719 34.742188 9.765625 151.414062 6.710937 230.546875zm0 0"/><path d="m365.40625 356.570312c5.046875 0 9.140625-4.09375 9.140625-9.140624-1.980469-5.339844-5.101563-10.179688-9.140625-14.191407-4.039062 4.011719-7.160156 8.855469-9.144531 14.191407 0 5.046874 4.09375 9.140624 9.144531 9.140624zm0 0"/><path d="m473.390625 214.855469c-41.957031 22.660156-88.964844 34.339843-136.648437 33.949219-.429688 6.445312-.914063 12.542968-1.554688 18.15625 9.800781 0 19.640625-.273438 29.375-1.179688 39.027344-3.269531 76.707031-15.832031 109.890625-36.632812-.421875-4.792969-.761719-9.546876-1.0625-14.292969zm0 0"/><path d="m496.742188 349.90625c-9.332032-32.855469-16.078126-66.394531-20.167969-100.304688-31.34375 18.050782-66.078125 29.421876-102.027344 33.398438v33.1875c6.539063 6.648438 18.285156 20.113281 18.285156 31.242188 0 15.148437-12.277343 27.425781-27.425781 27.425781s-27.429688-12.277344-27.429688-27.425781c0-11.109376 11.75-24.59375 18.285157-31.242188v-31.46875c-6.882813.429688-13.777344.722656-20.671875.722656-1.070313 0-2.140625 0-3.207032-.054687-.664062 3.398437-1.519531 6.753906-2.570312 10.054687-19.832031 59.53125-32.503906 87.398438-125.148438 124.460938-28.113281 11.246094-46.984374 20.035156-60.761718 26.453125-31.972656 14.910156-42.726563 19.929687-88.914063 19.929687-28.785156 0-46.15625 0-52.410156 2.6875-1.898437.824219-2.449219 1.675782-2.449219 15.597656-.394531 7.390626 2.367188 14.597657 7.601563 19.828126 5.230469 5.234374 12.4375 7.996093 19.828125 7.601562 13.757812.175781 27.300781-3.433594 39.148437-10.433594 7.484375-4.679687 16.035157-7.382812 24.851563-7.851562 5.050781 0 9.140625 4.09375 9.140625 9.140625-.03125 1.476562-.429688 2.921875-1.148438 4.207031 18.640625 3.574219 37.597657 5.226562 56.574219 4.9375 26.605469-.234375 53.074219-3.820312 78.785156-10.667969 28.570313-8.269531 58.492188-10.832031 88.054688-7.542969 32.730468 4.058594 52.882812 8.117188 69.0625 11.382813 19.234375 4.5625 38.9375 6.855469 58.707031 6.828125 18.023437 1.46875 35.636719-5.898438 47.242187-19.765625 18.558594-24.511719 18.128907-73.730469-1.234374-142.328125zm-23.597657-8.785156c-2.296875 9.785156-9.074219 17.917968-18.285156 21.941406l-21.277344 10.835938c-2.910156 1.488281-6.394531 1.308593-9.140625-.46875-2.742187-1.78125-4.328125-4.890626-4.152344-8.15625.171876-3.265626 2.074219-6.1875 4.992188-7.667969l21.285156-10.84375c4.042969-1.589844 7.191406-4.859375 8.628906-8.960938.296876-2.421875-.585937-4.835937-2.367187-6.5l-21.027344-23.441406c-3.277343-3.769531-2.929687-9.46875.789063-12.804687 3.714844-3.339844 9.421875-3.074219 12.816406.589843l21.027344 23.441407c5.601562 5.867187 8.089844 14.039062 6.710937 22.035156zm0 0"/></svg>