<?xml version="1.0" encoding="utf-8"?>
<!-- Svg Vector Icons : http://www.onlinewebfonts.com/icon -->
<!DOCTYPE svg PUBLIC "-//W3C//DTD SVG 1.1//EN" "http://www.w3.org/Graphics/SVG/1.1/DTD/svg11.dtd">
<svg version="1.1" xmlns="http://www.w3.org/2000/svg" xmlns:xlink="http://www.w3.org/1999/xlink" x="0px" y="0px" viewBox="0 0 1000 1000" enable-background="new 0 0 1000 1000" xml:space="preserve">
<metadata> Svg Vector Icons : http://www.onlinewebfonts.com/icon </metadata>
<g><path d="M972.2,680.8c12.4-12.1-147,166.9-147,166.9s-272.5,0-299.7,0c-71.6,0-205.9-90.3-354.1,19.7C160.3,855.4,10,700.2,10,700.2s273.4-164.1,288.2-172.6c111.2-53.2,192.7,30.7,222.3,30.7c29.6,0,219.4,0,233,0c37.1,0,79.1,71.8,0,96c-22.3,0-193.5,0-193.5,0s2.9,39.1,41.1,39.1c38.3,0,187.8,0,187.8,0s78.2-76.6,90.6-89.9c30.9-39.9,56-3.2,56-3.2S1027.8,594.9,972.2,680.8z M851.6,190.6H693.5v174.2H476.1V190.6H318v278.1c-18.8-0.3-38.5,2.1-59.3,8.6V190.6v-19.4v-38.7h652.2v38.7v19.4v349c-11.1,0-32.2,0-59.3,0V190.6z"/></g>
</svg>