<svg id="medal-outline-filled" xmlns="http://www.w3.org/2000/svg" xmlns:xlink="http://www.w3.org/1999/xlink" width="364" height="364" viewBox="0 0 64 64">
  <defs>
    <style>
      .cls-1, .cls-6 {
        fill: #824aee;
      }

      .cls-1, .cls-2, .cls-3, .cls-4, .cls-5, .cls-6, .cls-7 {
        fill-rule: evenodd;
      }

      .cls-1 {
        filter: url(#filter);
      }

      .cls-2 {
        fill: #6132d2;
        filter: url(#filter-2);
      }

      .cls-3 {
        fill: #ffc432;
        filter: url(#filter-3);
      }

      .cls-4 {
        fill: #fbe980;
        filter: url(#filter-4);
      }

      .cls-5 {
        fill: #f1ab0e;
        filter: url(#filter-5);
      }

      .cls-6 {
        filter: url(#filter-6);
      }

      .cls-7 {
        fill: #2c2c2c;
      }
    </style>
    <filter id="filter" x="39.156" y="1" width="22.844" height="37.125" filterUnits="userSpaceOnUse">
      <feFlood result="flood" flood-color="#c1c1c1"/>
      <feComposite result="composite" operator="in" in2="SourceGraphic"/>
      <feBlend result="blend" in2="SourceGraphic"/>
    </filter>
    <filter id="filter-2" x="12.719" y="1" width="38.563" height="13.063" filterUnits="userSpaceOnUse">
      <feFlood result="flood" flood-color="#c1c1c1"/>
      <feComposite result="composite" operator="in" in2="SourceGraphic"/>
      <feBlend result="blend" in2="SourceGraphic"/>
    </filter>
    <filter id="filter-3" x="14" y="27" width="36" height="36" filterUnits="userSpaceOnUse">
      <feFlood result="flood" flood-color="#9a9a9a"/>
      <feComposite result="composite" operator="in" in2="SourceGraphic"/>
      <feBlend result="blend" in2="SourceGraphic"/>
    </filter>
    <filter id="filter-4" x="20" y="33" width="24" height="24" filterUnits="userSpaceOnUse">
      <feFlood result="flood" flood-color="#7b7b7b"/>
      <feComposite result="composite" operator="in" in2="SourceGraphic"/>
      <feBlend result="blend" in2="SourceGraphic"/>
    </filter>
    <filter id="filter-5" x="25" y="37" width="14" height="14" filterUnits="userSpaceOnUse">
      <feFlood result="flood" flood-color="#e6df90"/>
      <feComposite result="composite" operator="in" in2="SourceGraphic"/>
      <feBlend result="blend" in2="SourceGraphic"/>
    </filter>
    <filter id="filter-6" x="2" y="1" width="22.844" height="37.125" filterUnits="userSpaceOnUse">
      <feFlood result="flood" flood-color="#c1c1c1"/>
      <feComposite result="composite" operator="in" in2="SourceGraphic"/>
      <feBlend result="blend" in2="SourceGraphic"/>
    </filter>
  </defs>
  <path id="ribbon_right" data-name="ribbon right" class="cls-1" d="M45.52,14.05L51.29,1,62,8.23,49,38l-0.35.14a18.056,18.056,0,0,0-9.5-9.67Z"/>
  <path id="ribbon_top" data-name="ribbon top" class="cls-2" d="M51.29,1L45.52,14.05H18.481L12.71,1H51.29Z"/>
  <path id="medal_outside" data-name="medal outside" class="cls-3" d="M24.85,28.47a17.977,17.977,0,1,1-9.5,9.67A18.114,18.114,0,0,1,24.85,28.47ZM44,45A12,12,0,1,0,32,57,12,12,0,0,0,44,45Z"/>
  <path id="medal_inside" data-name="medal inside" class="cls-4" d="M32,33A12,12,0,1,1,20,45,12,12,0,0,1,32,33Zm3.5,12.94L39,42.35l-4.84-.739L32,37l-2.16,4.61L25,42.35l3.5,3.59L27.68,51,32,48.61,36.32,51Z"/>
  <path id="star" class="cls-5" d="M39,42.35l-3.5,3.59L36.32,51,32,48.61,27.68,51l0.82-5.06L25,42.35l4.84-.739L32,37l2.16,4.61Z"/>
  <path id="ribbon_left" data-name="ribbon left" class="cls-6" d="M18.481,14.05L24.85,28.47a18.056,18.056,0,0,0-9.5,9.67L15,38,2,7.2,12.71,1Z"/>
  <path id="outline" class="cls-7" d="M62.916,8.631A1,1,0,0,0,62.56,7.4L51.85,0.171A0.986,0.986,0,0,0,51.26.023V0H12.74V0.021a0.989,0.989,0,0,0-.531.114L1.5,6.335a1,1,0,0,0-.42,1.254l13,30.8,0.144-.061a19,19,0,1,0,35.56.014L49.916,38.4ZM51.722,2.5l9.028,6.1L48.762,36.047A19.208,19.208,0,0,0,40.452,28ZM25.39,27.206L20.016,15.05H43.987L38.614,27.207A19.179,19.179,0,0,0,25.39,27.206ZM44.871,13.05H19.131L14.246,2H49.754ZM3.265,7.624l8.981-5.2L23.548,28a19.216,19.216,0,0,0-8.3,8.024ZM32,62A17.018,17.018,0,1,1,49,44.99,17.024,17.024,0,0,1,32,62Zm0-30A13,13,0,1,0,45,45,13.015,13.015,0,0,0,32,32Zm0,24A11,11,0,1,1,43,45,11.012,11.012,0,0,1,32,56Z"/>
</svg>
