<?xml version="1.0" encoding="UTF-8" standalone="no"?>
<!-- Created with Inkscape (http://www.inkscape.org/) -->

<svg
   xmlns:dc="http://purl.org/dc/elements/1.1/"
   xmlns:cc="http://creativecommons.org/ns#"
   xmlns:rdf="http://www.w3.org/1999/02/22-rdf-syntax-ns#"
   xmlns:svg="http://www.w3.org/2000/svg"
   xmlns="http://www.w3.org/2000/svg"
   xmlns:sodipodi="http://sodipodi.sourceforge.net/DTD/sodipodi-0.dtd"
   xmlns:inkscape="http://www.inkscape.org/namespaces/inkscape"
   width="210mm"
   height="297mm"
   viewBox="0 0 210 297"
   version="1.1"
   id="svg8"
   inkscape:version="0.92.5 (2060ec1f9f, 2020-04-08)"
   sodipodi:docname="trofeis.svg">
  <defs
     id="defs2" />
  <sodipodi:namedview
     id="base"
     pagecolor="#ffffff"
     bordercolor="#666666"
     borderopacity="1.0"
     inkscape:pageopacity="0.0"
     inkscape:pageshadow="2"
     inkscape:zoom="1.4"
     inkscape:cx="361.07516"
     inkscape:cy="373.69527"
     inkscape:document-units="mm"
     inkscape:current-layer="layer1"
     showgrid="false"
     inkscape:pagecheckerboard="false"
     inkscape:window-width="1885"
     inkscape:window-height="1047"
     inkscape:window-x="35"
     inkscape:window-y="0"
     inkscape:window-maximized="1" />
  <metadata
     id="metadata5">
    <rdf:RDF>
      <cc:Work
         rdf:about="">
        <dc:format>image/svg+xml</dc:format>
        <dc:type
           rdf:resource="http://purl.org/dc/dcmitype/StillImage" />
        <dc:title></dc:title>
      </cc:Work>
    </rdf:RDF>
  </metadata>
  <g
     inkscape:label="Layer 1"
     inkscape:groupmode="layer"
     id="layer1">
    <g
       id="g834"
       inkscape:export-filename="/home/developer/ouro.png"
       inkscape:export-xdpi="117"
       inkscape:export-ydpi="117"
       transform="translate(-0.78335097)">
      <path
         inkscape:connector-curvature="0"
         id="rect10"
         d="m 81.018793,19.790659 -0.100377,2.714818 c 1.016981,-0.238707 2.143189,-0.438962 3.30271,-0.525757 1.979135,-0.148152 4.171716,-0.01628 6.114555,1.210196 1.94284,1.226474 3.228654,3.657708 3.255395,6.625974 0.05257,5.835168 -3.38752,11.026467 -6.616894,14.872711 -3.229374,3.846245 -6.476371,6.414714 -6.476371,6.414714 a 2.3125801,2.3125801 0 0 1 -1.223103,0.488954 c -1.992491,6.823926 -7.708689,12.026314 -14.824437,13.277755 v 6.060547 h 13.651521 l 1.468296,7.865804 H 42.688232 l 1.468296,-7.865804 H 57.808049 V 64.870024 C 50.702217,63.620162 44.991288,58.430429 42.991259,51.62047 a 2.3125085,2.3125085 0 0 1 -1.229794,-0.517155 c 0,0 -3.248429,-2.568469 -6.477803,-6.414714 -3.229373,-3.846244 -6.669465,-9.037543 -6.616892,-14.872711 0.02673,-2.968266 1.312074,-5.3995 3.254914,-6.625974 1.94284,-1.226472 4.135897,-1.358348 6.115033,-1.210196 1.159847,0.08682 2.285982,0.287438 3.303189,0.526235 l -0.100377,-2.715296 z m 4.077005,6.775574 c -0.172239,0.0036 -0.348652,0.01183 -0.528146,0.02533 -1.325518,0.09922 -2.709378,0.435139 -3.828947,0.768083 l -0.662931,17.928796 c 0.989898,-0.950679 2.167469,-2.15796 3.355764,-3.573242 2.901639,-3.455903 5.569622,-7.991658 5.534788,-11.85773 -0.01696,-1.882358 -0.464915,-2.355623 -1.099787,-2.756404 -0.555516,-0.350683 -1.565075,-0.559998 -2.770741,-0.534837 z m -47.932317,0 c -1.206014,-0.02515 -2.216659,0.184155 -2.772172,0.534838 -0.634874,0.40078 -1.083309,0.874048 -1.100267,2.756404 -0.03483,3.866072 2.633627,8.401827 5.535266,11.85773 1.188667,1.415726 2.366159,2.623391 3.356243,3.574193 l -0.662934,-17.92975 c -1.119078,-0.332903 -2.502642,-0.668873 -3.82799,-0.768083 -0.179494,-0.01348 -0.355858,-0.02174 -0.528146,-0.02533 z"
         style="fill:#ffd700;fill-opacity:1;stroke:none;stroke-width:0.244716" />
      <path
         inkscape:transform-center-x="-1.7650774e-06"
         transform="scale(-1,1)"
         inkscape:transform-center-y="-0.66509003"
         d="m -61.128929,31.381897 2.814967,5.703747 6.294458,0.914638 -4.554712,4.439747 1.075221,6.269025 -5.629934,-2.959832 -5.629935,2.959831 1.075222,-6.269024 -4.554712,-4.439747 6.294458,-0.914638 z"
         inkscape:randomized="0"
         inkscape:rounded="0"
         inkscape:flatsided="false"
         sodipodi:arg2="-0.9424778"
         sodipodi:arg1="-1.5707963"
         sodipodi:r2="4.7891083"
         sodipodi:r1="9.5782166"
         sodipodi:cy="40.960114"
         sodipodi:cx="-61.128929"
         sodipodi:sides="5"
         id="path856"
         style="fill:#ffffff;fill-opacity:1;stroke:none;stroke-width:5.47118282;stroke-linecap:round;stroke-linejoin:bevel;stroke-miterlimit:4;stroke-dasharray:none"
         sodipodi:type="star" />
    </g>
    <g
       id="g838"
       inkscape:export-filename="/home/developer/prata.png"
       inkscape:export-xdpi="117"
       inkscape:export-ydpi="117">
      <path
         style="fill:#c0c0c0;fill-opacity:1;stroke:none;stroke-width:0.244716"
         d="m 168.89338,19.790659 -0.10037,2.714818 c 1.01698,-0.238707 2.14319,-0.438962 3.30271,-0.525757 1.97913,-0.148152 4.17171,-0.01628 6.11455,1.210196 1.94284,1.226474 3.22865,3.657708 3.2554,6.625974 0.0525,5.835168 -3.38753,11.026467 -6.6169,14.872711 -3.22937,3.846245 -6.47637,6.414714 -6.47637,6.414714 a 2.3125801,2.3125801 0 0 1 -1.2231,0.488954 c -1.99249,6.823926 -7.70869,12.026314 -14.82444,13.277755 v 6.060547 h 13.65152 l 1.4683,7.865804 h -36.88186 l 1.4683,-7.865804 h 13.65152 V 64.870024 C 138.57681,63.620162 132.86588,58.430429 130.86585,51.62047 a 2.3125085,2.3125085 0 0 1 -1.22979,-0.517155 c 0,0 -3.24843,-2.568469 -6.47781,-6.414714 -3.22937,-3.846244 -6.66946,-9.037543 -6.61689,-14.872711 0.0267,-2.968266 1.31207,-5.3995 3.25491,-6.625974 1.94284,-1.226472 4.1359,-1.358348 6.11504,-1.210196 1.15984,0.08682 2.28598,0.287438 3.30319,0.526235 l -0.10038,-2.715296 z m 4.07701,6.775574 c -0.17224,0.0036 -0.34865,0.01183 -0.52815,0.02533 -1.32552,0.09922 -2.70938,0.435139 -3.82895,0.768083 l -0.66293,17.928796 c 0.9899,-0.950679 2.16747,-2.15796 3.35577,-3.573242 2.90163,-3.455903 5.56962,-7.991658 5.53479,-11.85773 -0.0169,-1.882358 -0.46492,-2.355623 -1.09979,-2.756404 -0.55551,-0.350683 -1.56508,-0.559998 -2.77074,-0.534837 z m -47.93232,0 c -1.20601,-0.02515 -2.21666,0.184155 -2.77217,0.534838 -0.63488,0.40078 -1.08331,0.874048 -1.10027,2.756404 -0.0348,3.866072 2.63363,8.401827 5.53527,11.85773 1.18867,1.415726 2.36616,2.623391 3.35624,3.574193 l -0.66293,-17.92975 c -1.11908,-0.332903 -2.50264,-0.668873 -3.82799,-0.768083 -0.1795,-0.01348 -0.35586,-0.02174 -0.52815,-0.02533 z"
         id="path860"
         inkscape:connector-curvature="0" />
      <path
         sodipodi:type="star"
         style="fill:#ffffff;fill-opacity:1;stroke:none;stroke-width:5.47118282;stroke-linecap:round;stroke-linejoin:bevel;stroke-miterlimit:4;stroke-dasharray:none"
         id="path862"
         sodipodi:sides="5"
         sodipodi:cx="-149.00352"
         sodipodi:cy="40.960114"
         sodipodi:r1="9.5782166"
         sodipodi:r2="4.7891083"
         sodipodi:arg1="-1.5707963"
         sodipodi:arg2="-0.9424778"
         inkscape:flatsided="false"
         inkscape:rounded="0"
         inkscape:randomized="0"
         d="m -149.00352,31.381897 2.81496,5.703747 6.29446,0.914638 -4.55471,4.439747 1.07522,6.269025 -5.62993,-2.959832 -5.62994,2.959831 1.07522,-6.269024 -4.55471,-4.439747 6.29446,-0.914638 z"
         inkscape:transform-center-y="-0.66509003"
         transform="scale(-1,1)"
         inkscape:transform-center-x="-1.7650774e-06" />
    </g>
    <g
       id="g846"
       inkscape:export-filename="/home/developer/bronze.png"
       inkscape:export-xdpi="117"
       inkscape:export-ydpi="117"
       transform="translate(-0.610089)">
      <path
         inkscape:connector-curvature="0"
         id="path864"
         d="m 80.845534,117.46245 -0.10039,2.71481 c 1.016982,-0.2387 2.143184,-0.43896 3.302706,-0.52575 1.979135,-0.14815 4.171716,-0.0163 6.114559,1.21019 1.942843,1.22648 3.228651,3.65771 3.255399,6.62598 0.05253,5.83517 -3.387529,11.02647 -6.616896,14.87271 -3.22938,3.84624 -6.476376,6.41471 -6.476376,6.41471 a 2.3125801,2.3125801 0 0 1 -1.223099,0.48896 c -1.992488,6.82392 -7.708689,12.02631 -14.824442,13.27775 v 6.06055 H 77.92852 l 1.468299,7.8658 H 42.514958 l 1.468298,-7.8658 h 13.651526 v -6.06055 c -7.105838,-1.24986 -12.816773,-6.43959 -14.816797,-13.24955 a 2.3125085,2.3125085 0 0 1 -1.229782,-0.51716 c 0,0 -3.248427,-2.56847 -6.477807,-6.41471 -3.229366,-3.84624 -6.669456,-9.03754 -6.616881,-14.87271 0.02668,-2.96827 1.312074,-5.3995 3.254904,-6.62598 1.942842,-1.22647 4.135905,-1.35834 6.115039,-1.21019 1.159853,0.0868 2.285986,0.28744 3.303188,0.52623 l -0.10039,-2.71529 z m 4.077005,6.77557 c -0.172245,0.004 -0.348657,0.0118 -0.528149,0.0253 -1.325511,0.0992 -2.709372,0.43514 -3.828945,0.76809 l -0.662934,17.92879 c 0.989904,-0.95068 2.16747,-2.15796 3.355762,-3.57324 2.90164,-3.4559 5.569631,-7.99166 5.534797,-11.85773 -0.01691,-1.88236 -0.464917,-2.35562 -1.099783,-2.7564 -0.555517,-0.35069 -1.565087,-0.56 -2.770748,-0.53484 z m -47.932312,0 c -1.206019,-0.0252 -2.216661,0.18416 -2.772177,0.53484 -0.63488,0.40078 -1.083309,0.87405 -1.100265,2.7564 -0.03479,3.86607 2.633625,8.40183 5.535264,11.85773 1.188664,1.41573 2.366161,2.62339 3.356244,3.5742 l -0.662935,-17.92975 c -1.119077,-0.33291 -2.502636,-0.66888 -3.827995,-0.76809 -0.179493,-0.0135 -0.35585,-0.0217 -0.528136,-0.0253 z"
         style="fill:#cd7f32;fill-opacity:1;stroke:none;stroke-width:0.244716" />
      <path
         inkscape:transform-center-x="-1.7650774e-06"
         transform="scale(-1,1)"
         inkscape:transform-center-y="-0.66509003"
         d="m -60.955662,129.05368 2.814967,5.70375 6.294459,0.91464 -4.554713,4.43974 1.075221,6.26903 -5.629934,-2.95983 -5.629934,2.95983 1.075222,-6.26903 -4.554713,-4.43974 6.294458,-0.91464 z"
         inkscape:randomized="0"
         inkscape:rounded="0"
         inkscape:flatsided="false"
         sodipodi:arg2="-0.9424778"
         sodipodi:arg1="-1.5707963"
         sodipodi:r2="4.7891083"
         sodipodi:r1="9.5782166"
         sodipodi:cy="138.6319"
         sodipodi:cx="-60.955662"
         sodipodi:sides="5"
         id="path866"
         style="fill:#ffffff;fill-opacity:1;stroke:none;stroke-width:5.47118282;stroke-linecap:round;stroke-linejoin:bevel;stroke-miterlimit:4;stroke-dasharray:none"
         sodipodi:type="star" />
    </g>
    <g
       id="g842"
       inkscape:export-filename="/home/developer/chumbo.png"
       inkscape:export-xdpi="117"
       inkscape:export-ydpi="117">
      <path
         style="fill:#212121;fill-opacity:1;stroke:none;stroke-width:0.244716"
         d="m 168.72011,117.46245 -0.10039,2.71481 c 1.01698,-0.2387 2.14318,-0.43896 3.30271,-0.52575 1.97913,-0.14815 4.17171,-0.0163 6.11455,1.21019 1.94285,1.22648 3.22866,3.65771 3.2554,6.62598 0.0525,5.83517 -3.38753,11.02647 -6.61689,14.87271 -3.22938,3.84624 -6.47638,6.41471 -6.47638,6.41471 a 2.3125801,2.3125801 0 0 1 -1.2231,0.48896 c -1.99248,6.82392 -7.70869,12.02631 -14.82444,13.27775 v 6.06055 h 13.65153 l 1.46829,7.8658 h -36.88186 l 1.4683,-7.8658 h 13.65153 v -6.06055 c -7.10584,-1.24986 -12.81677,-6.43959 -14.8168,-13.24955 a 2.3125085,2.3125085 0 0 1 -1.22978,-0.51716 c 0,0 -3.24843,-2.56847 -6.47781,-6.41471 -3.22936,-3.84624 -6.66945,-9.03754 -6.61688,-14.87271 0.0267,-2.96827 1.31208,-5.3995 3.2549,-6.62598 1.94285,-1.22647 4.13591,-1.35834 6.11504,-1.21019 1.15986,0.0868 2.28599,0.28744 3.30319,0.52623 l -0.10039,-2.71529 z m 4.07701,6.77557 c -0.17225,0.004 -0.34866,0.0118 -0.52815,0.0253 -1.32551,0.0992 -2.70938,0.43514 -3.82895,0.76809 l -0.66293,17.92879 c 0.9899,-0.95068 2.16747,-2.15796 3.35576,-3.57324 2.90164,-3.4559 5.56963,-7.99166 5.5348,-11.85773 -0.0169,-1.88236 -0.46492,-2.35562 -1.09979,-2.7564 -0.55551,-0.35069 -1.56508,-0.56 -2.77074,-0.53484 z m -47.93232,0 c -1.20602,-0.0252 -2.21666,0.18416 -2.77217,0.53484 -0.63488,0.40078 -1.08331,0.87405 -1.10027,2.7564 -0.0348,3.86607 2.63363,8.40183 5.53527,11.85773 1.18866,1.41573 2.36616,2.62339 3.35624,3.5742 l -0.66294,-17.92975 c -1.11907,-0.33291 -2.50263,-0.66888 -3.82799,-0.76809 -0.17949,-0.0135 -0.35585,-0.0217 -0.52814,-0.0253 z"
         id="path868"
         inkscape:connector-curvature="0" />
      <path
         sodipodi:type="star"
         style="fill:#ffffff;fill-opacity:1;stroke:none;stroke-width:5.47118282;stroke-linecap:round;stroke-linejoin:bevel;stroke-miterlimit:4;stroke-dasharray:none"
         id="path870"
         sodipodi:sides="5"
         sodipodi:cx="-148.83025"
         sodipodi:cy="138.6319"
         sodipodi:r1="9.5782166"
         sodipodi:r2="4.7891083"
         sodipodi:arg1="-1.5707963"
         sodipodi:arg2="-0.9424778"
         inkscape:flatsided="false"
         inkscape:rounded="0"
         inkscape:randomized="0"
         d="m -148.83025,129.05368 2.81497,5.70375 6.29446,0.91464 -4.55471,4.43974 1.07522,6.26903 -5.62994,-2.95983 -5.62993,2.95983 1.07522,-6.26903 -4.55471,-4.43974 6.29446,-0.91464 z"
         inkscape:transform-center-y="-0.66509003"
         transform="scale(-1,1)"
         inkscape:transform-center-x="-1.7650774e-06" />
    </g>
    <g
       id="g51"
       inkscape:export-filename="/home/developer/erro.png"
       inkscape:export-xdpi="117.36533"
       inkscape:export-ydpi="117.36533">
      <path
         inkscape:connector-curvature="0"
         id="path19"
         d="m 168.72011,206.19593 -0.10039,2.71481 c 1.01698,-0.2387 2.14318,-0.43896 3.30271,-0.52575 1.97913,-0.14815 4.17171,-0.0163 6.11455,1.21019 1.94285,1.22648 3.22866,3.65771 3.2554,6.62598 0.0525,5.83517 -3.38753,11.02647 -6.61689,14.87271 -3.22938,3.84624 -6.47638,6.41471 -6.47638,6.41471 a 2.3125801,2.3125801 0 0 1 -1.2231,0.48896 c -1.99248,6.82392 -7.70869,12.02631 -14.82444,13.27775 v 6.06055 h 13.65153 l 1.46829,7.8658 h -36.88186 l 1.4683,-7.8658 h 13.65153 v -6.06055 c -7.10584,-1.24986 -12.81677,-6.43959 -14.8168,-13.24955 a 2.3125085,2.3125085 0 0 1 -1.22978,-0.51716 c 0,0 -3.24843,-2.56847 -6.47781,-6.41471 -3.22936,-3.84624 -6.66945,-9.03754 -6.61688,-14.87271 0.0267,-2.96827 1.31208,-5.3995 3.2549,-6.62598 1.94285,-1.22647 4.13591,-1.35834 6.11504,-1.21019 1.15986,0.0868 2.28599,0.28744 3.30319,0.52623 l -0.10039,-2.71529 z m 4.07701,6.77557 c -0.17225,0.004 -0.34866,0.0118 -0.52815,0.0253 -1.32551,0.0992 -2.70938,0.43514 -3.82895,0.76809 l -0.66293,17.92879 c 0.9899,-0.95068 2.16747,-2.15796 3.35576,-3.57324 2.90164,-3.4559 5.56963,-7.99166 5.5348,-11.85773 -0.0169,-1.88236 -0.46492,-2.35562 -1.09979,-2.7564 -0.55551,-0.35069 -1.56508,-0.56 -2.77074,-0.53484 z m -47.93232,0 c -1.20602,-0.0252 -2.21666,0.18416 -2.77217,0.53484 -0.63488,0.40078 -1.08331,0.87405 -1.10027,2.7564 -0.0348,3.86607 2.63363,8.40183 5.53527,11.85773 1.18866,1.41573 2.36616,2.62339 3.35624,3.5742 l -0.66294,-17.92975 c -1.11907,-0.33291 -2.50263,-0.66888 -3.82799,-0.76809 -0.17949,-0.0135 -0.35585,-0.0217 -0.52814,-0.0253 z"
         style="fill:#ff0000;fill-opacity:1;stroke:none;stroke-width:0.244716" />
      <rect
         ry="2.2866395"
         y="212.3557"
         x="146.54359"
         height="22.034889"
         width="4.5732789"
         id="rect44"
         style="fill:#ffffff;fill-opacity:1;stroke:none;stroke-width:0.20578703" />
      <circle
         r="2.8063307"
         cy="240.43484"
         cx="148.83023"
         id="path46"
         style="fill:#ffffff;fill-opacity:1;stroke:none;stroke-width:0.20578703" />
    </g>
    <g
       id="g835"
       inkscape:export-filename="/home/developer/Projects/web/images/trofeus/agendado.png"
       inkscape:export-xdpi="117"
       inkscape:export-ydpi="117">
      <path
         style="fill:#ff6600;fill-opacity:1;stroke:none;stroke-width:0.244716"
         d="m 80.235448,206.19593 -0.10039,2.71481 c 1.01698,-0.2387 2.14318,-0.43896 3.30271,-0.52575 1.97913,-0.14815 4.17171,-0.0163 6.11455,1.21019 1.94285,1.22648 3.22866,3.65771 3.2554,6.62598 0.0525,5.83517 -3.38753,11.02647 -6.61689,14.87271 -3.22938,3.84624 -6.47638,6.41471 -6.47638,6.41471 a 2.3125801,2.3125801 0 0 1 -1.2231,0.48896 c -1.99248,6.82392 -7.70869,12.02631 -14.82444,13.27775 v 6.06055 h 13.65153 l 1.46829,7.8658 h -36.88186 l 1.4683,-7.8658 h 13.65153 v -6.06055 c -7.10584,-1.24986 -12.81677,-6.43959 -14.8168,-13.24955 a 2.3125085,2.3125085 0 0 1 -1.22978,-0.51716 c 0,0 -3.24843,-2.56847 -6.47781,-6.41471 -3.22936,-3.84624 -6.66945,-9.03754 -6.61688,-14.87271 0.0267,-2.96827 1.31208,-5.3995 3.2549,-6.62598 1.94285,-1.22647 4.13591,-1.35834 6.11504,-1.21019 1.15986,0.0868 2.28599,0.28744 3.30319,0.52623 l -0.10039,-2.71529 z m 4.07701,6.77557 c -0.17225,0.004 -0.34866,0.0118 -0.52815,0.0253 -1.32551,0.0992 -2.70938,0.43514 -3.82895,0.76809 l -0.66293,17.92879 c 0.9899,-0.95068 2.16747,-2.15796 3.35576,-3.57324 2.90164,-3.4559 5.56963,-7.99166 5.5348,-11.85773 -0.0169,-1.88236 -0.46492,-2.35562 -1.09979,-2.7564 -0.55551,-0.35069 -1.56508,-0.56 -2.77074,-0.53484 z m -47.93232,0 c -1.20602,-0.0252 -2.21666,0.18416 -2.77217,0.53484 -0.63488,0.40078 -1.08331,0.87405 -1.10027,2.7564 -0.0348,3.86607 2.63363,8.40183 5.53527,11.85773 1.18866,1.41573 2.36616,2.62339 3.35624,3.5742 l -0.66294,-17.92975 c -1.11907,-0.33291 -2.50263,-0.66888 -3.82799,-0.76809 -0.17949,-0.0135 -0.35585,-0.0217 -0.52814,-0.0253 z"
         id="path23"
         inkscape:connector-curvature="0" />
      <path
         sodipodi:nodetypes="ccccccc"
         inkscape:connector-curvature="0"
         id="path26"
         d="m 50.781946,229.60586 1.716558,-1.81664 4.969292,4.9693 14.245307,-14.24531 2.429432,2.42943 -16.012166,16.01217 c -2.447082,-2.45204 -4.902681,-4.89558 -7.348423,-7.34895 z"
         style="fill:#ffffff;stroke:none;stroke-width:0.21863772px;stroke-linecap:butt;stroke-linejoin:miter;stroke-opacity:1" />
    </g>
  </g>
</svg>
